<svg width="250.5" height="78" xmlns="http://www.w3.org/2000/svg">
    <g>
        <g id="svg_10">
            <path vector-effect="non-scaling-stroke" id="0"
                d="m10.8,77.10025l-10.8,0l0,-70l10.6,0l25.5,41.5l-5.1,-0.1l25.8,-41.4l10,0l0,70l-10.8,0l0,-28.7q0,-8.71 0.421,-15.734a187.529,187.529 0 0 1 0.029,-0.466q0.45,-7.2 1.55,-14.3l1.4,3.7l-22.9,35.4l-6.6,0l-22.2,-35l1.1,-4.1q1.1,6.7 1.55,13.75a197.44,197.44 0 0 1 0.274,5.66q0.088,2.514 0.132,5.287a366.735,366.735 0 0 1 0.044,5.803l0,28.7z"
                fill="#FFF" />
            <g id="svg_1" fill-opacity="0.5" fill="#FFF">
                <path id="0"
                    d="m17.8,77.10025l-10.8,0l0,-70l10.6,0l25.5,41.5l-5.1,-0.1l25.8,-41.4l10,0l0,70l-10.8,0l0,-28.7q0,-8.71 0.421,-15.734a187.529,187.529 0 0 1 0.029,-0.466q0.45,-7.2 1.55,-14.3l1.4,3.7l-22.9,35.4l-6.6,0l-22.2,-35l1.1,-4.1q1.1,6.7 1.55,13.75a197.44,197.44 0 0 1 0.274,5.66q0.088,2.514 0.132,5.287a366.735,366.735 0 0 1 0.044,5.803l0,28.7z" />
            </g>
            <path id="1"
                d="m99.048,76.91425a25.015,25.015 0 0 1 -5.398,-2.364q-6.05,-3.55 -9.55,-9.7a26.823,26.823 0 0 1 -3.333,-10.677a33.273,33.273 0 0 1 -0.167,-3.373a30.429,30.429 0 0 1 1.047,-8.117a25.815,25.815 0 0 1 2.453,-5.933q3.5,-6.15 9.55,-9.7q6.05,-3.55 13.75,-3.55a27.897,27.897 0 0 1 8.791,1.353a25.125,25.125 0 0 1 4.859,2.197q6.05,3.55 9.55,9.7a26.823,26.823 0 0 1 3.333,10.678a33.273,33.273 0 0 1 0.167,3.372a30.429,30.429 0 0 1 -1.047,8.118a25.815,25.815 0 0 1 -2.453,5.932q-3.5,6.15 -9.55,9.7q-6.05,3.55 -13.65,3.55a28.554,28.554 0 0 1 -8.352,-1.186zm8.352,-8.214a16.055,16.055 0 0 0 5.484,-0.918a14.756,14.756 0 0 0 2.916,-1.432q3.7,-2.35 5.8,-6.4q2.005,-3.866 2.005,-8.688a23.54,23.54 0 0 0 -0.005,-0.462q0.057,-2.951 -0.595,-5.531a17.194,17.194 0 0 0 -1.405,-3.719q-2.1,-4.05 -5.8,-6.35a15.363,15.363 0 0 0 -7.492,-2.278a18.635,18.635 0 0 0 -0.908,-0.022a16.088,16.088 0 0 0 -5.95,1.086a15.174,15.174 0 0 0 -2.5,1.264q-3.75,2.35 -5.85,6.4q-2.005,3.866 -2.005,8.689a23.54,23.54 0 0 0 0.005,0.461a23.54,23.54 0 0 0 -0.005,0.462q0,2.844 0.698,5.356a17.234,17.234 0 0 0 1.307,3.332q2.1,4.05 5.85,6.4a15.489,15.489 0 0 0 8.011,2.345a18.538,18.538 0 0 0 0.439,0.005z"
                fill="#FFF" />
            <g id="svg_2" fill-opacity="0.5" fill="#FFF">
                <path id="1"
                    d="m106.048,76.91425a25.015,25.015 0 0 1 -5.398,-2.364q-6.05,-3.55 -9.55,-9.7a26.823,26.823 0 0 1 -3.333,-10.677a33.273,33.273 0 0 1 -0.167,-3.373a30.429,30.429 0 0 1 1.047,-8.117a25.815,25.815 0 0 1 2.453,-5.933q3.5,-6.15 9.55,-9.7q6.05,-3.55 13.75,-3.55a27.897,27.897 0 0 1 8.791,1.353a25.125,25.125 0 0 1 4.859,2.197q6.05,3.55 9.55,9.7a26.823,26.823 0 0 1 3.333,10.678a33.273,33.273 0 0 1 0.167,3.372a30.429,30.429 0 0 1 -1.047,8.118a25.815,25.815 0 0 1 -2.453,5.932q-3.5,6.15 -9.55,9.7q-6.05,3.55 -13.65,3.55a28.554,28.554 0 0 1 -8.352,-1.186zm8.352,-8.214a16.055,16.055 0 0 0 5.484,-0.918a14.756,14.756 0 0 0 2.916,-1.432q3.7,-2.35 5.8,-6.4q2.005,-3.866 2.005,-8.688a23.54,23.54 0 0 0 -0.005,-0.462q0.057,-2.951 -0.595,-5.531a17.194,17.194 0 0 0 -1.405,-3.719q-2.1,-4.05 -5.8,-6.35a15.363,15.363 0 0 0 -7.492,-2.278a18.635,18.635 0 0 0 -0.908,-0.022a16.088,16.088 0 0 0 -5.95,1.086a15.174,15.174 0 0 0 -2.5,1.264q-3.75,2.35 -5.85,6.4q-2.005,3.866 -2.005,8.689a23.54,23.54 0 0 0 0.005,0.461a23.54,23.54 0 0 0 -0.005,0.462q0,2.844 0.698,5.356a17.234,17.234 0 0 0 1.307,3.332q2.1,4.05 5.85,6.4a15.489,15.489 0 0 0 8.011,2.345a18.538,18.538 0 0 0 0.439,0.005z" />
            </g>
            <path id="2" d="m162.1,77.10025l-10.3,0l0,-65.9l10.3,0l0,65.9z" fill="#FFF" />
            <path id="svg_3" d="m174.3,34.60025l0,-10l-33.4,0l0,10l33.4,0z" fill="#FFF" />
            <g id="svg_4" fill-opacity="0.5" fill="#FFF">
                <path id="2" d="m169.1,77.10025l-10.3,0l0,-65.9l10.3,0l0,65.9z" />
                <path id="svg_5" d="m181.3,34.60025l0,-10l-33.4,0l0,10l33.4,0z" />
            </g>
            <path id="3"
                d="m195.7,77.10025l-10.3,0l0,-52.5l10.3,0l0,52.5zm-5.3,-64.1q-3.3,0 -5.1,-1.7q-1.78,-1.681 -1.8,-4.732a10.601,10.601 0 0 1 0,-0.068a7.394,7.394 0 0 1 0.305,-2.174a5.87,5.87 0 0 1 1.545,-2.526a6.154,6.154 0 0 1 2.967,-1.577a9.204,9.204 0 0 1 2.083,-0.223q3.3,0 5.1,1.7q1.78,1.682 1.8,4.732a10.601,10.601 0 0 1 0,0.068a7.394,7.394 0 0 1 -0.305,2.175a5.87,5.87 0 0 1 -1.545,2.525a6.154,6.154 0 0 1 -2.967,1.578a9.204,9.204 0 0 1 -2.083,0.222z"
                fill="#FFF" />
            <g id="svg_6" fill-opacity="0.5" fill="#FFF">
                <path id="3"
                    d="m202.7,77.10025l-10.3,0l0,-52.5l10.3,0l0,52.5zm-5.3,-64.1q-3.3,0 -5.1,-1.7q-1.78,-1.681 -1.8,-4.732a10.601,10.601 0 0 1 0,-0.068a7.394,7.394 0 0 1 0.305,-2.174a5.87,5.87 0 0 1 1.545,-2.526a6.154,6.154 0 0 1 2.967,-1.577a9.204,9.204 0 0 1 2.083,-0.223q3.3,0 5.1,1.7q1.78,1.682 1.8,4.732a10.601,10.601 0 0 1 0,0.068a7.394,7.394 0 0 1 -0.305,2.175a5.87,5.87 0 0 1 -1.545,2.525a6.154,6.154 0 0 1 -2.967,1.578a9.204,9.204 0 0 1 -2.083,0.222z" />
            </g>
            <path id="4"
                d="m217.2,77.10025l0,-58.4a17.271,17.271 0 0 1 0.598,-4.623a14.654,14.654 0 0 1 1.402,-3.377q2,-3.5 5.5,-5.5q3.5,-2 8.1,-2q3.2,0 6,1.2q2.8,1.2 4.5,3.2l-3.5,7.9q-1.3,-1.2 -2.85,-1.95a8.204,8.204 0 0 0 -1.328,-0.512a5.923,5.923 0 0 0 -1.622,-0.238a11.287,11.287 0 0 0 -1.57,0.103q-1.108,0.156 -1.98,0.547q-1.45,0.65 -2.15,2q-0.7,1.35 -0.7,3.25l0,58.4l-5.2,0l-2.6,0l-2.6,0z"
                fill="#FFF" />
            <path id="svg_7" d="m240,35.00025l0,-9.5l-31.2,0l0,9.5l31.2,0z" fill="#FFF" />
            <g id="svg_8" fill-opacity="0.5" fill="#FFF">
                <path id="4"
                    d="m224.2,77.10025l0,-58.4a17.271,17.271 0 0 1 0.598,-4.623a14.654,14.654 0 0 1 1.402,-3.377q2,-3.5 5.5,-5.5q3.5,-2 8.1,-2q3.2,0 6,1.2q2.8,1.2 4.5,3.2l-3.5,7.9q-1.3,-1.2 -2.85,-1.95a8.204,8.204 0 0 0 -1.328,-0.512a5.923,5.923 0 0 0 -1.622,-0.238a11.287,11.287 0 0 0 -1.57,0.103q-1.108,0.156 -1.98,0.547q-1.45,0.65 -2.15,2q-0.7,1.35 -0.7,3.25l0,58.4l-5.2,0l-2.6,0l-2.6,0z" />
                <path id="svg_9" d="m247,35.00025l0,-9.5l-31.2,0l0,9.5l31.2,0z" />
            </g>
        </g>
    </g>
</svg>